<svg xmlns="http://www.w3.org/2000/svg" xmlns:xlink="http://www.w3.org/1999/xlink" width="94" height="93" viewBox="0 0 94 93">
  <defs>
    <clipPath id="clip-Leaf">
      <rect width="94" height="93"/>
    </clipPath>
  </defs>
  <g id="Leaf" clip-path="url(#clip-Leaf)">
    <g id="Layer_3" transform="translate(2.35 1.6)">
      <g id="Group_6" data-name="Group 6">
        <path id="Path_22" data-name="Path 22" d="M7.5,83.9C6.3,85,9,81.6,14.7,75,25.3,62.8,46.8,40.4,74.2,16.7c0-.9,6.4-9.5,14.2-11.9.1.1-5.8,8.9-13.5,12.5-.5.2-51.6,49.1-65.9,67.5C5.8,87.8,7.5,83.9,7.5,83.9Z" fill="#1c4531"/>
        <path id="Path_23" data-name="Path 23" d="M0,49.8S3.5,66.8,14.7,75c1.7,1.3,1.2,0,1.2,0S2.9,52.1,0,49.8Z" fill="#1c4531"/>
        <path id="Path_24" data-name="Path 24" d="M3.8,37.7a54.164,54.164,0,0,0,13,34l1.5,1.2S5.8,42,3.8,37.7Z" fill="#1c4531"/>
        <path id="Path_25" data-name="Path 25" d="M9.8,26.2S8.4,48,21.1,67.8C21.1,67.8,15,34.6,9.8,26.2Z" fill="#1c4531"/>
        <path id="Path_26" data-name="Path 26" d="M17,15.8a83.64,83.64,0,0,0,7.8,46.9l.8,1.5C25.6,64.1,21.4,22.1,17,15.8Z" fill="#1c4531"/>
        <path id="Path_27" data-name="Path 27" d="M26.5,11.9s-6.8,19.4,4,45.8C30.5,57.7,29.3,25.3,26.5,11.9Z" fill="#1c4531"/>
        <path id="Path_28" data-name="Path 28" d="M37.5,7s-8,17.8-2.7,46.3l.5,1.2C35.2,54.4,39.1,21.3,37.5,7Z" fill="#1c4531"/>
        <path id="Path_29" data-name="Path 29" d="M40,48.7s5.9-33.1,5.8-43.9c0,0-10.5,18.4-6.5,43.9Z" fill="#1c4531"/>
        <path id="Path_30" data-name="Path 30" d="M53,2.4s-7.4,6.4-8,41.4C45,43.8,52.1,18.6,53,2.4Z" fill="#1c4531"/>
        <path id="Path_31" data-name="Path 31" d="M59.8.6s-9.3,14.3-9.7,37.5c0,0,8.8-24.6,9.7-38.1C58.7,2.4,59.8.6,59.8.6Z" fill="#1c4531"/>
        <path id="Path_32" data-name="Path 32" d="M65.7,1.1S57.1,12.8,55,33.5C54.9,33.4,66.3,6.3,65.7,1.1Z" fill="#1c4531"/>
        <path id="Path_33" data-name="Path 33" d="M73.5,1.7s-11.1,12.2-12,26.7C61.5,28.4,74,4.8,73.5,1.7Z" fill="#1c4531"/>
        <path id="Path_34" data-name="Path 34" d="M77.4,3.4s-8.5,11.5-9.9,19C67.5,22.4,77.5,8.3,77.4,3.4Z" fill="#1c4531"/>
        <g id="Group_5" data-name="Group 5">
          <path id="Path_35" data-name="Path 35" d="M39.2,89.8S22.3,85.9,14.4,74.4c-1.2-1.8,0-1.2,0-1.2S36.9,86.9,39.2,89.8Z" fill="#1c4531"/>
          <path id="Path_36" data-name="Path 36" d="M51.3,86.4a53.911,53.911,0,0,1-33.6-14l-1.1-1.6C16.6,70.9,47.2,84.3,51.3,86.4Z" fill="#1c4531"/>
          <path id="Path_37" data-name="Path 37" d="M63,80.7s-21.8.8-41.3-12.5C21.8,68.3,54.8,75.3,63,80.7Z" fill="#1c4531"/>
          <path id="Path_38" data-name="Path 38" d="M73.6,73.5A83.922,83.922,0,0,1,27,64.4l-1.5-.8S67.5,69,73.6,73.5Z" fill="#1c4531"/>
          <path id="Path_39" data-name="Path 39" d="M76.1,63.9s-19.6,6.3-45.7-5.3C30.5,58.6,62.9,60.7,76.1,63.9Z" fill="#1c4531"/>
          <path id="Path_40" data-name="Path 40" d="M83,53.6S65,61.1,36.6,55l-1.2-.5C35.5,54.5,68.8,51.5,83,53.6Z" fill="#1c4531"/>
          <path id="Path_41" data-name="Path 41" d="M40.2,50.1S73.4,45,84.3,45.4c0,0-18.7,10-44.1,5.3v-.6Z" fill="#1c4531"/>
          <path id="Path_42" data-name="Path 42" d="M86.8,38.1S80.2,45.3,45.2,45C45.2,45,70.6,38.6,86.8,38.1Z" fill="#1c4531"/>
          <path id="Path_43" data-name="Path 43" d="M87.8,31.4s-14.6,8.9-37.7,8.7c0,0,24.8-8.2,38.3-8.7C85.9,32.4,87.8,31.4,87.8,31.4Z" fill="#1c4531"/>
          <path id="Path_44" data-name="Path 44" d="M87.8,25.6s-12,8.3-32.6,9.8C55.1,35.4,82.5,24.8,87.8,25.6Z" fill="#1c4531"/>
          <path id="Path_45" data-name="Path 45" d="M89.3,17.7S76.8,28.5,62.3,29C62.3,29,86.2,17.1,89.3,17.7Z" fill="#1c4531"/>
          <path id="Path_46" data-name="Path 46" d="M87.7,13.7s-11.8,8.2-19.3,9.4C68.4,23.2,82.8,13.5,87.7,13.7Z" fill="#1c4531"/>
        </g>
      </g>
    </g>
  </g>
</svg>
